<?xml version="1.0" encoding="utf-8"?>
<!-- Generator: Adobe Illustrator 19.2.1, SVG Export Plug-In . SVG Version: 6.00 Build 0)  -->
<svg version="1.1" id="layer" xmlns="http://www.w3.org/2000/svg" xmlns:xlink="http://www.w3.org/1999/xlink" x="0px" y="0px"
	 viewBox="0 0 652 652" style="enable-background:new 0 0 652 652;" xml:space="preserve">
<style type="text/css">
	.st0{fill:#ffffff;}
	.st1{fill:#3399ff;}
</style>
<path class="st0" d="M620.8,356.6v-50.7h0v-0.1c0-22.5-18.2-40.7-40.7-40.7c-0.1,0-0.3,0-0.4,0v0h-60.1v-30.5h101.1V194H499v0
	l-0.2,0c-22.4,0-40.7,18.2-40.7,40.7v40.7c0,22.3,18,40.4,40.2,40.6h61.4v40.6H458.2v40.7h122.4C602.8,397,620.7,378.9,620.8,356.6
	C620.8,356.6,620.8,356.6,620.8,356.6L620.8,356.6z"/>
<path class="st0" d="M397.2,194H173.7v203.2h61.4V234.6h39.7v162.6h61.4V234.6h40.2v162.6h61.4V234.6
	C437.9,212.2,419.7,194,397.2,194z M82.2,356.6V234.6h71.1V194H61.4c-22.5,0-40.7,18.2-40.7,40.7v121.9c0,22.4,18.2,40.7,40.7,40.7
	h91.9v-40.7L82.2,356.6L82.2,356.6z"/>
<path class="st1" d="M620.8,417.5h-600v5.2h600V417.5 M620.8,448h-600v-15.2h600V448"/>
</svg>
