<svg width="554.20126953125px" height="122px" xmlns="http://www.w3.org/2000/svg" viewBox="-27.10063476562499 14 554.20126953125 122" style="background: rgba(0, 0, 0, 0);" preserveAspectRatio="xMidYMid"><defs><filter id="editing-hole" x="-100%" y="-100%" width="300%" height="300%"><feFlood flood-color="#000" result="black"></feFlood><feMorphology operator="dilate" radius="2" in="SourceGraphic" result="erode"></feMorphology><feGaussianBlur in="erode" stdDeviation="4" result="blur"></feGaussianBlur><feOffset in="blur" dx="2" dy="2" result="offset"></feOffset><feComposite operator="atop" in="offset" in2="black" result="merge"></feComposite><feComposite operator="in" in="merge" in2="SourceGraphic" result="inner-shadow"></feComposite></filter></defs><g filter="url(#editing-hole)"><g transform="translate(55.627859115600586, 99)"><path d="M29.18 1.28L29.18 1.28L29.18 1.28Q20.99 1.28 20.22-10.37L20.22-10.37L9.22-10.37L9.22-10.37Q7.94-7.42 7.04-4.86L7.04-4.86L5.38 0L-3.58 0L16.58-42.24L30.34-42.24L33.02-11.14L33.02-11.14Q33.66-4.42 36.22-2.43L36.22-2.43L36.22-2.43Q34.37 1.28 29.18 1.28ZM14.72-23.17L11.20-15.04L20.03-15.04L19.26-31.49L19.26-33.22L14.72-23.17ZM60.10-33.92L60.10-33.92L60.10-33.92Q62.40-33.92 64.19-33.41L64.19-33.41L64.19-33.41Q64.26-33.66 64.38-34.37L64.38-34.37L64.70-36.35L64.70-36.35Q64.96-37.63 65.34-39.74L65.34-39.74L66.37-44.80L79.10-46.08L72-8.96L72-8.96Q71.94-8.58 71.94-7.94L71.94-7.94L71.94-6.91L71.94-6.91Q71.94-5.50 72.64-4.45L72.64-4.45L72.64-4.45Q73.34-3.39 74.50-3.39L74.50-3.39L74.50-3.39Q73.22-0.38 69.31 0.90L69.31 0.90L69.31 0.90Q67.97 1.28 66.08 1.28L66.08 1.28L66.08 1.28Q64.19 1.28 62.46 0.29L62.46 0.29L62.46 0.29Q60.74-0.70 60.22-2.37L60.22-2.37L60.22-2.37Q59.20-0.70 57.15 0.29L57.15 0.29L57.15 0.29Q55.10 1.28 52.13 1.28L52.13 1.28L52.13 1.28Q49.15 1.28 46.69 0.51L46.69 0.51L46.69 0.51Q44.22-0.26 42.69-1.92L42.69-1.92L42.69-1.92Q39.87-5.18 39.87-12.61L39.87-12.61L39.87-12.61Q39.87-22.21 45.50-28.03L45.50-28.03L45.50-28.03Q51.14-33.92 60.10-33.92ZM59.65-30.08L59.65-30.08L59.65-30.08Q57.28-30.08 56-27.52L56-27.52L56-27.52Q54.72-24.96 53.41-18.62L53.41-18.62L53.41-18.62Q52.10-12.29 52.10-6.59L52.10-6.59L52.10-6.59Q52.10-2.69 54.40-2.69L54.40-2.69L54.40-2.69Q56.45-2.69 57.89-4.74L57.89-4.74L57.89-4.74Q59.33-6.78 59.90-10.18L59.90-10.18L63.36-28.93L63.36-28.93Q62.02-30.08 59.65-30.08ZM126.02 1.28L126.02 1.28L126.02 1.28Q118.27 1.28 118.27-4.74L118.27-4.74L118.27-4.74Q118.27-7.36 119.39-12.45L119.39-12.45L119.39-12.45Q120.51-17.54 120.90-19.58L120.90-19.58L120.90-19.58Q121.79-24.26 121.79-25.73L121.79-25.73L121.79-25.73Q121.79-28.99 119.36-28.99L119.36-28.99L119.36-28.99Q117.76-28.99 116.22-26.78L116.22-26.78L116.22-26.78Q114.69-24.58 113.98-20.16L113.98-20.16L110.02 0L97.54 1.28L100.99-16.13L100.99-16.13Q101.57-19.01 102.08-22.27L102.08-22.27L102.08-22.27Q102.59-25.54 102.59-26.05L102.59-26.05L102.59-26.05Q102.59-28.99 100.42-28.99L100.42-28.99L100.42-28.99Q98.94-28.99 97.34-26.82L97.34-26.82L97.34-26.82Q95.74-24.64 94.85-20.16L94.85-20.16L90.94 0L78.34 1.28L85.06-32.64L95.49-33.92L94.40-27.46L94.40-27.46Q96.06-30.91 99.14-32.42L99.14-32.42L99.14-32.42Q102.21-33.92 107.01-33.92L107.01-33.92L107.01-33.92Q109.76-33.92 111.55-32.58L111.55-32.58L111.55-32.58Q113.34-31.23 113.92-29.06L113.92-29.06L113.92-29.06Q115.01-31.30 117.79-32.61L117.79-32.61L117.79-32.61Q120.58-33.92 124-33.92L124-33.92L124-33.92Q127.42-33.92 129.12-33.18L129.12-33.18L129.12-33.18Q130.82-32.45 131.84-31.23L131.84-31.23L131.84-31.23Q133.57-28.99 133.57-24.90L133.57-24.90L133.57-24.90Q133.57-20.86 131.84-12.48L131.84-12.48L131.84-12.48Q130.94-8.38 130.94-6.88L130.94-6.88L130.94-6.88Q130.94-5.38 131.81-4.48L131.81-4.48L131.81-4.48Q132.67-3.58 133.95-3.46L133.95-3.46L133.95-3.46Q133.31-1.28 131.10 0L131.10 0L131.10 0Q128.90 1.28 126.02 1.28ZM154.24-3.52L154.24-3.52L154.24-3.52Q152.26 1.28 145.92 1.28L145.92 1.28L145.92 1.28Q142.66 1.28 140.61-0.96L140.61-0.96L140.61-0.96Q138.88-2.94 138.88-4.93L138.88-4.93L138.88-4.93Q138.88-10.11 141.25-20.22L141.25-20.22L143.62-32.64L156.61-33.92L152.70-13.70L152.70-13.70Q151.62-8.96 151.62-7.30L151.62-7.30L151.62-7.30Q151.62-3.65 154.24-3.52ZM144.77-41.54L144.77-41.54L144.77-41.54Q144.77-44.03 146.85-45.38L146.85-45.38L146.85-45.38Q148.93-46.72 151.94-46.72L151.94-46.72L151.94-46.72Q154.94-46.72 156.77-45.38L156.77-45.38L156.77-45.38Q158.59-44.03 158.59-41.54L158.59-41.54L158.59-41.54Q158.59-39.04 156.58-37.76L156.58-37.76L156.58-37.76Q154.56-36.48 151.55-36.48L151.55-36.48L151.55-36.48Q148.54-36.48 146.66-37.76L146.66-37.76L146.66-37.76Q144.77-39.04 144.77-41.54ZM186.75 1.28L186.75 1.28L186.75 1.28Q179.01 1.28 179.01-4.74L179.01-4.74L179.01-4.74Q179.07-6.40 179.58-9.22L179.58-9.22L180.74-15.10L180.74-15.10Q182.46-23.42 182.46-25.28L182.46-25.28L182.46-25.28Q182.46-28.99 180.29-28.99L180.29-28.99L180.29-28.99Q176.64-28.99 174.72-19.46L174.72-19.46L170.94 0L158.08 1.28L164.74-32.70L175.23-33.92L174.21-27.65L174.21-27.65Q177.22-33.92 186.43-33.92L186.43-33.92L186.43-33.92Q190.91-33.92 192.80-32.03L192.80-32.03L192.80-32.03Q194.69-30.14 194.69-25.92L194.69-25.92L194.69-25.92Q194.69-21.95 192.64-12.67L192.64-12.67L192.64-12.67Q191.68-8.51 191.68-6.94L191.68-6.94L191.68-6.94Q191.68-5.38 192.54-4.48L192.54-4.48L192.54-4.48Q193.41-3.58 194.69-3.46L194.69-3.46L194.69-3.46Q194.05-1.28 191.84 0L191.84 0L191.84 0Q189.63 1.28 186.75 1.28ZM238.02-42.69L238.02-42.69L238.02-42.69Q253.70-42.69 253.70-31.62L253.70-31.62L253.70-31.62Q253.70-25.54 249.79-21.89L249.79-21.89L249.79-21.89Q245.95-18.24 239.23-18.24L239.23-18.24L239.23-18.24Q236.10-18.24 233.66-20.03L233.66-20.03L233.66-20.03Q232.51-20.80 231.74-21.82L231.74-21.82L231.74-21.82Q236.42-21.82 238.88-24.67L238.88-24.67L238.88-24.67Q241.34-27.52 241.34-33.09L241.34-33.09L241.34-33.09Q241.34-38.66 235.84-38.66L235.84-38.66L234.30-38.66L234.30-38.66Q233.92-38.66 233.60-38.59L233.60-38.59L226.24 0L212.35 0L220.22-41.92L220.22-41.92Q227.07-42.56 231.04-42.62L231.04-42.62L231.04-42.62Q235.01-42.69 238.02-42.69ZM256.80-1.92L256.80-1.92L256.80-1.92Q255.30-3.58 254.62-6.21L254.62-6.21L254.62-6.21Q253.95-8.83 253.95-13.12L253.95-13.12L253.95-13.12Q253.95-17.41 255.42-21.31L255.42-21.31L255.42-21.31Q256.90-25.22 259.58-28.03L259.58-28.03L259.58-28.03Q265.09-33.92 274.18-33.92L274.18-33.92L274.18-33.92Q277.44-33.92 279.81-32.83L279.81-32.83L290.75-33.92L286.02-8.96L286.02-8.96Q285.82-8.19 285.82-6.78L285.82-6.78L285.82-6.78Q285.82-5.38 286.69-4.48L286.69-4.48L286.69-4.48Q287.55-3.58 288.83-3.46L288.83-3.46L288.83-3.46Q288.19-1.28 285.86 0L285.86 0L285.86 0Q283.52 1.28 280.90 1.28L280.90 1.28L280.90 1.28Q278.27 1.28 276.51 0.29L276.51 0.29L276.51 0.29Q274.75-0.70 274.24-2.37L274.24-2.37L274.24-2.37Q273.22-0.77 271.04 0.26L271.04 0.26L271.04 0.26Q268.86 1.28 265.95 1.28L265.95 1.28L265.95 1.28Q263.04 1.28 260.67 0.51L260.67 0.51L260.67 0.51Q258.30-0.26 256.80-1.92ZM270.30-27.90L270.30-27.90L270.30-27.90Q269.57-26.75 268.93-24.80L268.93-24.80L268.93-24.80Q268.29-22.85 267.23-17.63L267.23-17.63L267.23-17.63Q266.18-12.42 266.18-8.70L266.18-8.70L266.18-8.70Q266.18-4.99 266.75-3.90L266.75-3.90L266.75-3.90Q267.33-2.82 268.35-2.82L268.35-2.82L268.35-2.82Q270.40-2.82 271.90-4.77L271.90-4.77L271.90-4.77Q273.41-6.72 273.98-10.18L273.98-10.18L277.38-28.93L277.38-28.93Q276.03-30.08 274.46-30.08L274.46-30.08L274.46-30.08Q272.90-30.08 271.97-29.57L271.97-29.57L271.97-29.57Q271.04-29.06 270.30-27.90ZM321.28 1.28L321.28 1.28L321.28 1.28Q313.54 1.28 313.54-4.74L313.54-4.74L313.54-4.74Q313.60-6.40 314.11-9.22L314.11-9.22L315.26-15.10L315.26-15.10Q316.99-23.42 316.99-25.28L316.99-25.28L316.99-25.28Q316.99-28.99 314.82-28.99L314.82-28.99L314.82-28.99Q311.17-28.99 309.25-19.46L309.25-19.46L305.47 0L292.61 1.28L299.26-32.70L309.76-33.92L308.74-27.65L308.74-27.65Q311.74-33.92 320.96-33.92L320.96-33.92L320.96-33.92Q325.44-33.92 327.33-32.03L327.33-32.03L327.33-32.03Q329.22-30.14 329.22-25.92L329.22-25.92L329.22-25.92Q329.22-21.95 327.17-12.67L327.17-12.67L327.17-12.67Q326.21-8.51 326.21-6.94L326.21-6.94L326.21-6.94Q326.21-5.38 327.07-4.48L327.07-4.48L327.07-4.48Q327.94-3.58 329.22-3.46L329.22-3.46L329.22-3.46Q328.58-1.28 326.37 0L326.37 0L326.37 0Q324.16 1.28 321.28 1.28ZM360.26-10.82L360.26-10.82L360.26-10.82Q361.86-9.73 361.86-7.33L361.86-7.33L361.86-7.33Q361.86-4.93 360.64-3.39L360.64-3.39L360.64-3.39Q359.42-1.86 357.44-0.83L357.44-0.83L357.44-0.83Q353.34 1.28 348.93 1.28L348.93 1.28L348.93 1.28Q344.51 1.28 341.92 0.32L341.92 0.32L341.92 0.32Q339.33-0.64 337.60-2.43L337.60-2.43L337.60-2.43Q334.21-5.82 334.21-12.03L334.21-12.03L334.21-12.03Q334.21-21.70 339.46-27.58L339.46-27.58L339.46-27.58Q345.09-33.92 354.88-33.92L354.88-33.92L354.88-33.92Q360.96-33.92 363.97-31.36L363.97-31.36L363.97-31.36Q366.21-29.44 366.21-26.30L366.21-26.30L366.21-26.30Q366.21-15.04 346.75-15.04L346.75-15.04L346.75-15.04Q346.50-13.38 346.50-11.97L346.50-11.97L346.50-11.97Q346.50-9.02 347.81-7.90L347.81-7.90L347.81-7.90Q349.12-6.78 351.55-6.78L351.55-6.78L351.55-6.78Q353.98-6.78 356.58-7.90L356.58-7.90L356.58-7.90Q359.17-9.02 360.26-10.82ZM347.20-17.79L347.20-17.79L347.20-17.79Q351.74-17.79 354.37-20.61L354.37-20.61L354.37-20.61Q356.99-23.30 356.99-27.58L356.99-27.58L356.99-27.58Q356.99-29.06 356.45-29.86L356.45-29.86L356.45-29.86Q355.90-30.66 354.82-30.66L354.82-30.66L354.82-30.66Q353.73-30.66 352.80-30.24L352.80-30.24L352.80-30.24Q351.87-29.82 350.91-28.42L350.91-28.42L350.91-28.42Q348.54-25.22 347.20-17.79ZM383.68-3.52L383.68-3.52L383.68-3.52Q381.70 1.28 375.36 1.28L375.36 1.28L375.36 1.28Q372.16 1.28 370.11-0.96L370.11-0.96L370.11-0.96Q368.45-2.82 368.45-4.93L368.45-4.93L368.45-4.93Q368.45-9.73 370.69-20.22L370.69-20.22L375.36-44.80L388.35-46.08L382.14-13.70L382.14-13.70Q381.06-8.96 381.06-7.30L381.06-7.30L381.06-7.30Q381.06-3.65 383.68-3.52Z" fill="#ccc"></path></g></g><style>text {
  font-size: 64px;
  font-family: Arial Black;
  dominant-baseline: central;
  text-anchor: middle;
}</style></svg>